<svg xmlns="http://www.w3.org/2000/svg" viewBox="0 0 128 128">
  <defs>
    <linearGradient id="grad" x1="0%" y1="0%" x2="100%" y2="100%">
      <stop offset="0%" style="stop-color:#a855f7;stop-opacity:1" />
      <stop offset="100%" style="stop-color:#6366f1;stop-opacity:1" />
    </linearGradient>
  </defs>
  <circle cx="64" cy="64" r="60" fill="url(#grad)"/>
  <path fill="white" d="M84,54 L84,82 C84,86.4 80.4,90 76,90 C71.6,90 68,86.4 68,82 C68,77.6 71.6,74 76,74 C77.5,74 78.9,74.4 80,75 L80,50 L56,56 L56,86 C56,90.4 52.4,94 48,94 C43.6,94 40,90.4 40,86 C40,81.6 43.6,78 48,78 C49.5,78 50.9,78.4 52,79 L52,46 L84,38 L84,54 Z"/>
</svg>
